<?xml version="1.0" encoding="UTF-8"?>
<svg id="Layer_2" data-name="Layer 2" xmlns="http://www.w3.org/2000/svg" viewBox="0 0 1919.99 158.04">
  <g id="Layer_2-2" data-name="Layer 2">
    <g id="Layer_1-2" data-name="Layer 1-2">
      <path d="M1919.99,158.04H0V6.96c6.62-.58,13.24-1.58,19.87-1.65,34.64-.35,69.3-1.14,103.92-.47,32.45.63,64.91,2.21,97.28,4.58,38.99,2.85,77.93,6.56,116.81,10.67,36.21,3.83,72.42,7.99,108.44,13.24,51.79,7.55,103.54,15.55,155.09,24.57,53.67,9.4,107.13,20.06,160.61,30.5,70.27,13.72,139.51,32.55,210.55,42.45,28.32,3.95,56.73,7.4,85.18,10.34,20.35,2.1,40.81,3.41,61.26,4.29,28.78,1.24,57.6,2.77,86.38,2.35,39.78-.59,79.58-2.08,119.27-4.66,34.67-2.26,69.38-5.4,103.77-10.26,44.89-6.34,89.68-13.82,134.18-22.46,91.51-17.77,181.03-42.99,268.53-75.01,29.93-10.95,59.25-23.58,88.85-35.44v158.04Z" style="fill: #fff; stroke-width: 0px;"/>
    </g>
  </g>
</svg>