<?xml version="1.0" encoding="UTF-8"?>
<svg id="Layer_2" data-name="Layer 2" xmlns="http://www.w3.org/2000/svg" viewBox="0 0 1919.99 158.04">
  <g id="Layer_2-2" data-name="Layer 2">
    <g id="Layer_1-2" data-name="Layer 1-2">
      <path d="M0,0c29.6,11.86,58.92,24.49,88.85,35.44,87.5,32.02,177.02,57.24,268.53,75.01,44.5,8.64,89.29,16.12,134.18,22.46,34.39,4.86,69.1,8,103.77,10.26,39.69,2.58,79.49,4.07,119.27,4.66,28.78.42,57.6-1.11,86.38-2.35,20.45-.88,40.91-2.19,61.26-4.29,28.45-2.94,56.86-6.39,85.18-10.34,71.04-9.9,140.28-28.73,210.55-42.45,53.48-10.44,106.94-21.1,160.61-30.5,51.55-9.02,103.3-17.02,155.09-24.57,36.02-5.25,72.23-9.41,108.44-13.24,38.88-4.11,77.82-7.82,116.81-10.67,32.37-2.37,64.83-3.95,97.28-4.58,34.62-.67,69.28.12,103.92.47,6.63.07,13.25,1.07,19.87,1.65v151.08H0V0Z" style="fill: #1111d3; stroke-width: 0px;"/>
    </g>
  </g>
</svg>