<?xml version="1.0" encoding="UTF-8"?>
<svg id="Layer_1" data-name="Layer 1" xmlns="http://www.w3.org/2000/svg" viewBox="0 0 210 550">
  <path d="M105.27-212.26c-3.13,47.97-1.41,95.87-1.53,143.88-.08,35.15-.75,70.27-.49,105.43s1.37,70.45,1.37,105.68c0,35.95-1.54,71.89-1.25,107.83.22,27.23,1.53,54.43,1.78,81.66.26,27.58-.63,55.19-2.64,82.7-.57,7.7,11.44,7.67,12,0,1.81-24.67,2.69-49.42,2.68-74.16,0-25.4-1.21-50.78-1.64-76.17-.58-34.05.81-68.07,1.01-102.12.21-36.35-.73-72.65-1.16-108.99s-.1-75.59.28-113.39c.51-50.84-1.74-101.56,1.58-152.36.5-7.71-11.5-7.68-12,0h0Z" style="fill: #231f20; stroke-width: 0px;"/>
  <path d="M5.54,411.94c0,28.31,1.8,56,3.12,84.13.44,9.38-2.17,32.67,3.09,40.49,5.95,8.84,32.55,4.98,43.31,5.98,23.2,2.16,46.63,1.7,69.95,1.69,24.11,0,48.22-1.31,71.96-3.04,1.93-7.56,4.89-13.19,5.42-21.06.84-12.43,1.38-25.1,1.8-37.56.81-24.15-.14-45.27-4.63-68.57-63.55-4.56-132.88-3.04-194.02-2.08Z" style="fill: #ffdcdc; stroke: #231f20; stroke-miterlimit: 10; stroke-width: 11px;"/>
  <g>
    <path d="M7.35,414.93c14,9.71,29.91,20.71,49.57,34.26,4.32,2.98,12.13,8.38,22.95,14.59,8.87,5.09,22.99,13.87,32.76,15.16,11.53,1.52,18.46-6.44,43.42-27.54,9.31-7.87,23.73-19.9,42.13-34.51" style="fill: #ffdcdc; stroke-width: 0px;"/>
    <path d="M4.32,420.11c28.65,19.86,56.81,41.44,87.86,57.49,10.69,5.53,22.27,10.32,33.88,4.94s21.6-16.16,31.33-24.44c14.79-12.59,29.83-24.89,45.04-36.98,6.04-4.8-2.5-13.25-8.49-8.49-12.94,10.29-25.75,20.73-38.4,31.36-10.26,8.63-20.08,18.76-31.46,25.94-2.99,1.88-5.71,3.12-8.43,3.17-6.09.09-12.15-3.15-17.41-5.87-13.54-7-26.56-15.14-39.1-23.79-16.27-11.21-32.52-22.45-48.75-33.7-6.36-4.41-12.37,5.99-6.06,10.36h0Z" style="fill: #231f20; stroke-width: 0px;"/>
  </g>
  <g>
    <path d="M113.37,501.63c-1.36,0-2.74-.16-4.11-.46-14.63-2.6-24.2-12.15-25.6-25.55-1.31-12.48,3.73-18.11,8.19-20.63,1.22-.69,2.6-1.04,4.1-1.04,4.22,0,10.16,3.54,14.34,8.53,3.6-6.01,9.22-10.23,14.52-10.23,3.07,0,10.34,1.48,11.42,15.16.8,10.18-2.6,21.01-8.67,27.58-4.02,4.35-8.92,6.64-14.18,6.64Z" style="fill: #ed5d5d; stroke-width: 0px;"/>
    <path d="M124.8,456.24c3.67,0,6.78,3.22,7.43,11.48,1.12,14.23-6.82,29.91-18.87,29.91-1.08,0-2.18-.12-3.32-.39-9.99-1.75-20.93-7.87-22.41-22.05-.78-7.49.83-13.7,6.18-16.73.64-.36,1.35-.53,2.13-.53,5.35,0,13.34,7.87,14.94,13.73,1.76-8.32,8.46-15.43,13.92-15.43M124.8,448.24h0c-5.36,0-10.82,3.15-15.01,8.07-2.85-2.58-8.04-6.37-13.85-6.37-2.2,0-4.24.53-6.07,1.56-10.49,5.94-10.89,17.92-10.2,24.53,1.6,15.25,12.36,26.1,28.79,29.06,1.63.36,3.28.54,4.9.54,6.4,0,12.32-2.74,17.12-7.93,6.9-7.47,10.63-19.2,9.72-30.61-1.38-17.49-12.14-18.85-15.41-18.85h0Z" style="fill: #231f20; stroke-width: 0px;"/>
  </g>
</svg>