<?xml version="1.0" encoding="UTF-8"?>
<svg id="Layer_1" data-name="Layer 1" xmlns="http://www.w3.org/2000/svg" viewBox="0 0 2100 2100">
  <path d="M480.24,828.59c8.07-8.44,14.89-13.46,16.61-14.71,25.39-18.43,54.63-24.14,73.58-23.21,61.97,3.03,98.08,60.99,105.93,73.5,37.05,59.09,23.88,123.15,15.66,163.16-5.58,27.14-13.18,42.32-22.05,54.27-22.56,30.4-53.73,40.42-62.7,42.98-35.51,10.12-64.68.52-76.48-3.55-7.61-2.62-31.72-11.7-54.1-34.69-24.04-24.7-32.24-51.6-36.24-65.21-1.18-4.02-5.61-19.78-6.89-41.06-.42-6.95-.7-17.86.73-32.46,2.64-26.84,7.8-79.15,45.94-119.02Z" style="fill: #254d92; stroke-width: 0px;"/>
  <path d="M914.58,967.18c-.3-14.22-.66-93.47,58.4-143.08,12.35-10.37,44.25-37.09,86.3-33.01,42.62,4.14,68.55,36.25,82.05,52.74,4.75,5.81,19.69,24.92,29.3,54.7,19.94,61.81,3.9,129.27,3.9,129.27,0,0,0,.01,0,.04-2.57,10.64-8.16,34.51-22.04,54.23-14.84,21.07-34.57,31-42.44,34.86-6.41,3.13-33.46,15.65-69.1,11.06-21.74-2.81-37-10.73-46.75-15.91-29.38-15.61-45.3-36.29-48.92-41.14-1.81-2.43-8.98-12.21-15.71-26.98-6.37-13.99-15.9-40.24-14.98-76.77Z" style="fill: #254d92; stroke-width: 0px;"/>
  <path d="M30.2,793.11V-2.54h2039.02v2102.65H30.2V793.11M645.25,2067.78c127.18,31.17,254.64,32.97,381.53-.1,131.85-34.36,236.36-107.24,308.07-224.9,9.24-15.16,21.19-29.3,34.25-41.35,19.15-17.65,35.29-14.77,45.89,8.96,9.68,21.69,15.58,45.12,22.44,67.99,25.55,85.23,76.8,148.43,159.58,183.2,95.38,40.06,193.99,36.6,292.38,15.05,81-17.75,134.65-68.28,155.77-148.94,9.03-34.5,14.16-70.63,16.09-106.28,9.18-169.54-20.04-335.84-45.38-502.38-25.85-169.86-24.69-339.52-.82-509.62,18.87-134.51,36.99-269.3,35.87-405.62-.63-76.69-3.52-153.22-29.26-226.74-25.78-73.65-74.71-123.37-150.83-143.82-64.89-17.43-131.07-15.78-196.23-4.27-35.5,6.27-71.16,18.35-103.52,34.35-65.3,32.28-104.27,88.92-130.32,155.5-5.77,14.75-12.6,29.53-21.58,42.48-12.16,17.53-24.34,19.56-40.59,5.9-18.77-15.77-36.07-33.49-52.69-51.58-62.56-68.12-133.45-124.2-221.39-156.22-74.09-26.98-150.97-36.47-229.4-37.62-249.66-3.66-451.02,96.42-607.42,287.45C136.91,468.98,77.65,658.47,54.8,860.38c-16.99,150.16-14.96,300.52,7.34,450.3,26.96,181.04,82.12,351.04,196.13,497.66,99.58,128.07,226.26,216.3,386.97,259.44h.01Z" style="fill: none; stroke-width: 0px;"/>
  <path d="M643.69,2067.26c-159.15-42.62-285.83-130.86-385.42-258.92-114.01-146.62-169.17-316.62-196.13-497.66-22.31-149.78-24.33-300.14-7.34-450.3,22.84-201.91,82.1-391.4,212.9-551.16C424.11,118.18,625.47,18.11,875.13,21.77c78.43,1.15,155.31,10.64,229.4,37.62,87.94,32.03,158.82,88.11,221.39,156.22,16.62,18.09,33.92,35.81,52.69,51.58,16.25,13.65,28.43,11.63,40.59-5.9,8.98-12.94,15.81-27.72,21.58-42.48,26.05-66.59,65.02-123.23,130.32-155.5,32.36-15.99,68.01-28.08,103.52-34.35,65.15-11.51,131.33-13.15,196.23,4.27,76.12,20.44,125.04,70.17,150.83,143.82,25.74,73.52,28.63,150.05,29.26,226.74,1.13,136.33-17,271.11-35.87,405.62-23.86,170.1-25.02,339.76.82,509.62,25.34,166.54,54.56,332.84,45.38,502.38-1.93,35.66-7.06,71.78-16.09,106.28-21.12,80.66-74.77,131.2-155.77,148.94-98.39,21.56-197,25.01-292.38-15.05-82.78-34.77-134.03-97.97-159.58-183.2-6.86-22.88-12.76-46.31-22.44-67.99-10.6-23.74-26.75-26.61-45.89-8.96-13.06,12.04-25.01,26.19-34.25,41.35-71.71,117.66-176.22,190.55-308.07,224.9-126.89,33.06-254.34,31.27-383.08-.42M577.58,1134.87c15.33-13.6,32.75-25.49,45.61-41.12,37.77-45.94,52.47-101.37,56.36-159.21,6.6-97.94-7.8-191.54-69.21-272.25-61.55-80.9-172.83-83.25-232.16-1-86.87,120.45-96.44,254.13-40.79,388.52,42.74,103.23,145.1,135.92,240.18,85.06M1004.57,1150.41c61.98-21.34,97.14-68.11,117.29-127.3,22.09-64.9,24.73-131.61,13.81-199.23-9.7-60.09-28.05-116.38-66.84-164.46-48.66-60.33-125.7-76.97-186.87-35.7-25.1,16.93-48.66,41.04-63.66,67.19-59.04,102.95-67.72,213.62-34.02,326.16,32.71,109.22,113.54,157.18,220.29,133.35h0Z" style="fill: #254d92; stroke-width: 0px;"/>
</svg>