<svg version="1.1" id="Layer_1" xmlns="http://www.w3.org/2000/svg" xmlns:xlink="http://www.w3.org/1999/xlink" x="0px" y="0px"
	 width="100%" viewBox="0 0 320 320" enable-background="new 0 0 320 320" xml:space="preserve">
<path fill="none" opacity="1.000000" stroke="none" 
	d="
M213.000000,321.000000 
	C142.000015,321.000000 71.500023,321.000000 1.000028,321.000000 
	C1.000019,214.333359 1.000019,107.666733 1.000009,1.000071 
	C107.666618,1.000048 214.333237,1.000048 320.999878,1.000024 
	C320.999939,107.666595 320.999939,214.333191 320.999969,320.999878 
	C285.166656,321.000000 249.333328,321.000000 213.000000,321.000000 
M75.608910,103.207481 
	C75.307152,103.406647 75.226463,103.672813 74.966103,104.601440 
	C71.429688,111.005074 67.864166,117.392838 64.361755,123.815010 
	C46.680019,156.236954 29.077438,188.702271 11.306512,221.075226 
	C5.773092,231.155365 3.814396,241.715103 6.618634,252.817184 
	C11.129652,270.676483 25.120932,282.796326 43.882660,284.767761 
	C58.728649,286.327789 75.556610,279.250122 84.531883,262.831482 
	C110.138489,215.988785 135.631195,169.083847 161.733475,122.515274 
	C162.136719,123.040756 162.618988,123.523209 162.931885,124.097885 
	C179.963043,155.375168 196.944580,186.679520 214.015610,217.935013 
	C220.938461,230.610077 228.053131,243.180359 235.313660,256.479095 
	C245.955200,278.470612 261.757477,287.436707 283.932495,284.065033 
	C304.383392,280.955475 320.663574,258.086639 317.496643,237.771469 
	C316.114197,228.903427 312.213715,221.439972 307.562225,213.450760 
	C283.204224,168.723129 258.822998,124.008118 234.504578,79.258980 
	C228.438263,68.096146 221.751862,57.561291 211.902039,49.127888 
	C187.004089,27.810268 148.798096,24.913847 121.079231,42.219246 
	C105.823402,51.743732 95.572060,65.319832 87.557976,80.957687 
	C84.318169,87.279518 81.171692,93.649170 78.002167,99.997673 
	C78.002167,99.997673 77.997101,99.981430 77.374191,100.193184 
	C76.949898,101.147469 76.525612,102.101746 76.020836,103.032707 
	C76.020836,103.032707 76.052338,103.110352 75.608910,103.207481 
z"/>
<path fill="#61D4F9" opacity="1.000000" stroke="none" 
	d="
M235.080505,255.798325 
	C228.053131,243.180359 220.938461,230.610077 214.015610,217.935013 
	C196.944580,186.679520 179.963043,155.375168 162.931885,124.097885 
	C162.618988,123.523209 162.136719,123.040756 161.383652,121.983932 
	C158.964661,117.496979 157.036392,113.459846 154.802994,109.599243 
	C142.085526,87.616089 110.754700,79.843437 89.165146,93.236458 
	C85.464020,95.532448 81.711510,97.745628 77.982742,99.997055 
	C81.171692,93.649170 84.318169,87.279518 87.557976,80.957687 
	C95.572060,65.319832 105.823402,51.743732 121.079231,42.219246 
	C148.798096,24.913847 187.004089,27.810268 211.902039,49.127888 
	C221.751862,57.561291 228.438263,68.096146 234.504578,79.258980 
	C258.822998,124.008118 283.204224,168.723129 307.247742,213.715485 
	C306.276062,213.479965 305.566406,213.035248 304.969208,212.471436 
	C281.071167,189.909958 242.194885,201.142578 235.050949,233.113815 
	C233.442154,240.313644 234.987274,248.218185 235.080505,255.798325 
z"/>
<path fill="#4394F6" opacity="1.000000" stroke="none" 
	d="
M77.992447,99.997360 
	C81.711510,97.745628 85.464020,95.532448 89.165146,93.236458 
	C110.754700,79.843437 142.085526,87.616089 154.802994,109.599243 
	C157.036392,113.459846 158.964661,117.496979 161.101257,121.827988 
	C135.631195,169.083847 110.138489,215.988785 84.531883,262.831482 
	C75.556610,279.250122 58.728649,286.327789 43.882660,284.767761 
	C25.120932,282.796326 11.129652,270.676483 6.618634,252.817184 
	C3.814396,241.715103 5.773092,231.155365 11.306512,221.075226 
	C29.077438,188.702271 46.680019,156.236954 64.361755,123.815010 
	C67.864166,117.392838 71.429688,111.005074 75.331985,104.200897 
	C75.898994,103.613014 76.017159,103.383018 76.052338,103.110352 
	C76.052338,103.110352 76.020836,103.032707 76.401672,102.981995 
	C77.187378,101.948006 77.592239,100.964714 77.997101,99.981430 
	C77.997101,99.981430 78.002167,99.997673 77.992447,99.997360 
z"/>
<path fill="#4394F6" opacity="1.000000" stroke="none" 
	d="
M235.197083,256.138702 
	C234.987274,248.218185 233.442154,240.313644 235.050949,233.113815 
	C242.194885,201.142578 281.071167,189.909958 304.969208,212.471436 
	C305.566406,213.035248 306.276062,213.479965 307.242859,214.054443 
	C312.213715,221.439972 316.114197,228.903427 317.496643,237.771469 
	C320.663574,258.086639 304.383392,280.955475 283.932495,284.065033 
	C261.757477,287.436707 245.955200,278.470612 235.197083,256.138702 
z"/>
<path fill="#61D4F9" opacity="1.000000" stroke="none" 
	d="
M77.685646,100.087311 
	C77.592239,100.964714 77.187378,101.948006 76.441917,102.993652 
	C76.525612,102.101746 76.949898,101.147469 77.685646,100.087311 
z"/>
<path fill="#61D4F9" opacity="1.000000" stroke="none" 
	d="
M75.830627,103.158920 
	C76.017159,103.383018 75.898994,103.613014 75.532349,103.903160 
	C75.226463,103.672813 75.307152,103.406647 75.830627,103.158920 
z"/>
</svg>
