<svg version="1.1" id="Layer_1" xmlns="http://www.w3.org/2000/svg" xmlns:xlink="http://www.w3.org/1999/xlink" x="0px" y="0px"
	 width="100%" viewBox="0 0 510 526" enable-background="new 0 0 510 526" xml:space="preserve">
<path fill="none" opacity="1.000000" stroke="none" 
	d="
M1.000000,200.000000 
	C1.000000,133.349304 1.000000,67.198593 1.000000,1.023947 
	C170.943008,1.023947 340.886017,1.023947 510.914520,1.023947 
	C510.914520,176.234009 510.914520,351.468079 510.914520,526.851074 
	C341.000092,526.851074 171.000061,526.851074 1.000000,526.851074 
	C1.000000,418.114014 1.000000,309.307007 1.000000,200.000000 
M154.809921,518.766418 
	C186.615997,526.562378 218.489746,527.010681 250.221176,518.742371 
	C283.193115,510.150757 309.330750,491.924011 327.263031,462.498840 
	C329.573425,458.707672 332.561829,455.170746 335.829071,452.159302 
	C340.616913,447.746307 344.655182,448.464722 347.305389,454.400970 
	C349.726501,459.824036 351.202454,465.684113 352.917450,471.404785 
	C359.306885,492.717743 372.122650,508.523773 392.824646,517.218933 
	C416.676239,527.237000 441.336517,526.372375 465.941803,520.981934 
	C486.197693,516.544250 499.615509,503.907104 504.896057,483.734619 
	C507.154602,475.106567 508.437012,466.072601 508.920013,457.155762 
	C511.216675,414.757080 503.909302,373.169586 497.572235,331.521576 
	C491.108826,289.043182 491.398956,246.614151 497.366425,204.076904 
	C502.085480,170.438080 506.617615,136.731598 506.335724,102.639397 
	C506.177124,83.461632 505.455566,64.322327 499.018585,45.936428 
	C492.570557,27.518810 480.335968,15.083266 461.300446,9.970737 
	C445.071991,5.612124 428.522339,6.024133 412.228729,8.901721 
	C403.350189,10.469740 394.433502,13.491586 386.341400,17.491238 
	C370.011261,25.562654 360.266144,39.727116 353.751953,56.379505 
	C352.308868,60.068562 350.600311,63.765381 348.355408,67.001869 
	C345.313965,71.386864 342.267700,71.892754 338.205048,68.478470 
	C333.511719,64.534203 329.184357,60.102959 325.029205,55.579018 
	C309.383698,38.544918 291.656158,24.520391 269.665375,16.511526 
	C251.136597,9.763503 231.911575,7.390521 212.297531,7.102970 
	C149.863129,6.187652 99.508049,31.214857 60.394424,78.988884 
	C27.684174,118.941719 12.864504,166.329102 7.152108,216.821823 
	C2.903870,254.372635 3.410718,291.974365 8.988884,329.431824 
	C15.731073,374.705688 29.524683,417.218597 58.035938,453.885040 
	C82.939667,485.912109 114.619370,507.977722 154.809921,518.766418 
z"/>
<path fill="#254D92" opacity="1.000000" stroke="none" 
	d="
M154.420090,518.636353 
	C114.619370,507.977722 82.939667,485.912109 58.035938,453.885040 
	C29.524683,417.218597 15.731073,374.705688 8.988884,329.431824 
	C3.410718,291.974365 2.903870,254.372635 7.152108,216.821823 
	C12.864504,166.329102 27.684174,118.941719 60.394424,78.988884 
	C99.508049,31.214857 149.863129,6.187652 212.297531,7.102970 
	C231.911575,7.390521 251.136597,9.763503 269.665375,16.511526 
	C291.656158,24.520391 309.383698,38.544918 325.029205,55.579018 
	C329.184357,60.102959 333.511719,64.534203 338.205048,68.478470 
	C342.267700,71.892754 345.313965,71.386864 348.355408,67.001869 
	C350.600311,63.765381 352.308868,60.068562 353.751953,56.379505 
	C360.266144,39.727116 370.011261,25.562654 386.341400,17.491238 
	C394.433502,13.491586 403.350189,10.469740 412.228729,8.901721 
	C428.522339,6.024133 445.071991,5.612124 461.300446,9.970737 
	C480.335968,15.083266 492.570557,27.518810 499.018585,45.936428 
	C505.455566,64.322327 506.177124,83.461632 506.335724,102.639397 
	C506.617615,136.731598 502.085480,170.438080 497.366425,204.076904 
	C491.398956,246.614151 491.108826,289.043182 497.572235,331.521576 
	C503.909302,373.169586 511.216675,414.757080 508.920013,457.155762 
	C508.437012,466.072601 507.154602,475.106567 504.896057,483.734619 
	C499.615509,503.907104 486.197693,516.544250 465.941803,520.981934 
	C441.336517,526.372375 416.676239,527.237000 392.824646,517.218933 
	C372.122650,508.523773 359.306885,492.717743 352.917450,471.404785 
	C351.202454,465.684113 349.726501,459.824036 347.305389,454.400970 
	C344.655182,448.464722 340.616913,447.746307 335.829071,452.159302 
	C332.561829,455.170746 329.573425,458.707672 327.263031,462.498840 
	C309.330750,491.924011 283.193115,510.150757 250.221176,518.742371 
	C218.489746,527.010681 186.615997,526.562378 154.420090,518.636353 
M137.886200,285.465576 
	C141.720764,282.064514 146.076965,279.092255 149.291580,275.181610 
	C158.736282,263.691803 162.412079,249.830856 163.386703,235.367279 
	C165.037018,210.875580 161.437012,187.467514 146.079895,167.282486 
	C130.686707,147.050034 102.857803,146.463348 88.022881,167.032867 
	C66.298721,197.154724 63.906418,230.586319 77.822357,264.194397 
	C88.511391,290.009247 114.109695,298.183777 137.886200,285.465576 
M244.668945,289.350677 
	C260.168793,284.014160 268.962341,272.317993 274.000916,257.514648 
	C279.525085,241.284698 280.185333,224.601944 277.454346,207.690826 
	C275.027649,192.663940 270.438568,178.587234 260.740204,166.563263 
	C248.570358,151.475159 229.304977,147.314804 214.006958,157.635086 
	C207.730270,161.869461 201.838364,167.897141 198.087723,174.437363 
	C183.323792,200.182129 181.151749,227.859344 189.579391,256.003235 
	C197.758377,283.316742 217.973251,295.309479 244.668945,289.350677 
z"/>
<path fill="#FDFDFD" opacity="1.000000" stroke="none" 
	d="
M137.576752,285.665771 
	C114.109695,298.183777 88.511391,290.009247 77.822357,264.194397 
	C63.906418,230.586319 66.298721,197.154724 88.022881,167.032867 
	C102.857803,146.463348 130.686707,147.050034 146.079895,167.282486 
	C161.437012,187.467514 165.037018,210.875580 163.386703,235.367279 
	C162.412079,249.830856 158.736282,263.691803 149.291580,275.181610 
	C146.076965,279.092255 141.720764,282.064514 137.576752,285.665771 
M105.744705,251.150864 
	C98.183266,257.838745 96.471107,267.076599 101.258286,275.357147 
	C105.375221,282.478363 114.435677,285.963196 122.451653,283.294830 
	C129.329346,281.005402 133.772308,276.202972 134.880920,269.032959 
	C136.065506,261.371552 133.668716,254.789032 126.924507,250.458710 
	C120.105202,246.080185 113.153252,246.185776 105.744705,251.150864 
z"/>
<path fill="#FDFDFD" opacity="1.000000" stroke="none" 
	d="
M244.292709,289.500610 
	C217.973251,295.309479 197.758377,283.316742 189.579391,256.003235 
	C181.151749,227.859344 183.323792,200.182129 198.087723,174.437363 
	C201.838364,167.897141 207.730270,161.869461 214.006958,157.635086 
	C229.304977,147.314804 248.570358,151.475159 260.740204,166.563263 
	C270.438568,178.587234 275.027649,192.663940 277.454346,207.690826 
	C280.185333,224.601944 279.525085,241.284698 274.000916,257.514648 
	C268.962341,272.317993 260.168793,284.014160 244.292709,289.500610 
M249.168106,266.263489 
	C249.515610,263.979095 250.143661,261.696838 250.160736,259.409973 
	C250.225113,250.790298 244.554733,243.828430 236.080505,241.832626 
	C227.990906,239.927368 219.805832,243.667114 215.908752,251.049072 
	C211.136688,260.088409 214.433319,271.121582 223.359192,275.984192 
	C232.653915,281.047699 243.402283,277.269348 249.168106,266.263489 
z"/>
<path fill="#254D92" opacity="1.000000" stroke="none" 
	d="
M106.050926,250.942886 
	C113.153252,246.185776 120.105202,246.080185 126.924507,250.458710 
	C133.668716,254.789032 136.065506,261.371552 134.880920,269.032959 
	C133.772308,276.202972 129.329346,281.005402 122.451653,283.294830 
	C114.435677,285.963196 105.375221,282.478363 101.258286,275.357147 
	C96.471107,267.076599 98.183266,257.838745 106.050926,250.942886 
z"/>
<path fill="#254D92" opacity="1.000000" stroke="none" 
	d="
M249.028015,266.636780 
	C243.402283,277.269348 232.653915,281.047699 223.359192,275.984192 
	C214.433319,271.121582 211.136688,260.088409 215.908752,251.049072 
	C219.805832,243.667114 227.990906,239.927368 236.080505,241.832626 
	C244.554733,243.828430 250.225113,250.790298 250.160736,259.409973 
	C250.143661,261.696838 249.515610,263.979095 249.028015,266.636780 
z"/>
</svg>
