<?xml version="1.0" encoding="UTF-8"?>
<svg id="Layer_1" data-name="Layer 1" xmlns="http://www.w3.org/2000/svg" viewBox="0 0 200 700">
  <path d="M101.58,4.25c-2.86,43.79-1.28,87.51-1.39,131.34-.08,31.86-.68,63.69-.45,95.55s1.25,64.25,1.25,96.39c0,32.83-1.41,65.65-1.13,98.47.2,24.6,1.37,49.18,1.62,73.78s-.55,50.64-2.4,75.88c-.56,7.7,11.44,7.67,12,0,3.35-45.73,1.73-91.2.95-136.96-.52-30.57.72-61.09.91-91.66.21-33.18-.62-66.32-1.03-99.49s-.12-69.52.24-104.29c.48-46.38-1.58-92.66,1.44-139.01.5-7.71-11.5-7.68-12,0h0Z" style="fill: #231f20; stroke-width: 0px;"/>
  <path d="M11.25,572.94c0,25.79,1.64,51.02,2.84,76.65.4,8.54-1.98,29.77,2.82,36.89,5.42,8.06,29.66,4.54,39.46,5.45,21.14,1.97,42.48,1.55,63.73,1.54,21.96,0,43.93-1.19,65.57-2.77,1.76-6.89,4.45-12.02,4.93-19.19.76-11.33,1.26-22.87,1.64-34.22.74-22-.13-41.24-4.22-62.47-57.9-4.15-121.06-2.77-176.77-1.89Z" style="fill: #ffdcdc; stroke: #231f20; stroke-miterlimit: 10; stroke-width: 11px;"/>
  <g>
    <path d="M12.89,575.67c12.76,8.84,27.25,18.87,45.16,31.22,3.94,2.71,11.05,7.64,20.91,13.29,8.08,4.64,20.94,12.63,29.85,13.81,10.51,1.39,16.82-5.87,39.56-25.09,8.48-7.17,21.62-18.13,38.38-31.44" style="fill: #ffdcdc; stroke-width: 0px;"/>
    <path d="M9.86,580.85c25.7,17.81,50.93,36.93,78.6,51.63,10.12,5.38,21.4,10.47,32.58,5.38,10.76-4.91,19.75-14.66,28.63-22.22,13.57-11.56,27.37-22.84,41.32-33.93,6.04-4.8-2.5-13.25-8.49-8.49-11.67,9.28-23.23,18.7-34.65,28.3-9.39,7.89-18.36,17.13-28.74,23.73-2.73,1.73-5.36,2.97-7.92,2.91-5.86-.15-11.61-3.35-16.67-6.03-11.82-6.29-23.23-13.37-34.25-20.97-14.8-10.2-29.58-20.42-44.35-30.66-6.36-4.41-12.37,5.99-6.06,10.36h0Z" style="fill: #231f20; stroke-width: 0px;"/>
  </g>
  <g>
    <path d="M109.49,655.01c-1.26,0-2.54-.14-3.82-.43-13.49-2.4-22.31-11.21-23.61-23.59-1.21-11.56,3.49-16.79,7.64-19.14,1.17-.66,2.49-1,3.91-1,4.39,0,9.4,3.38,12.99,7.58,3.36-5.38,8.47-9.13,13.3-9.13,2.9,0,9.75,1.38,10.76,14.14.74,9.37-2.4,19.34-8,25.4-3.73,4.04-8.29,6.17-13.18,6.17Z" style="fill: #ed5d5d; stroke-width: 0px;"/>
    <path d="M119.9,613.3c3.35,0,6.18,2.94,6.77,10.46,1.02,12.97-6.21,27.25-17.19,27.25-.98,0-1.99-.11-3.02-.35-9.1-1.6-19.07-7.17-20.42-20.08-.71-6.82.76-12.48,5.63-15.25.58-.33,1.23-.48,1.94-.48,4.87,0,12.16,7.17,13.61,12.51,1.6-7.58,7.71-14.06,12.68-14.06M119.9,605.3h0c-4.88,0-9.84,2.74-13.73,7.06-3.79-3.26-8.28-5.51-12.56-5.51-2.13,0-4.1.51-5.88,1.52-4.25,2.41-11.16,8.6-9.65,23.04,1.49,14.23,11.5,24.34,26.8,27.1,1.53.34,3.08.51,4.6.51,6.04,0,11.61-2.58,16.12-7.45,6.42-6.94,9.88-17.84,9.05-28.43-.4-5.1-1.65-9.05-3.83-12.08-2.66-3.71-6.53-5.75-10.92-5.75h0Z" style="fill: #231f20; stroke-width: 0px;"/>
  </g>
</svg>
