<svg xmlns="http://www.w3.org/2000/svg" version="1.1" xmlns:xlink="http://www.w3.org/1999/xlink" xmlns:svgjs="http://svgjs.dev/svgjs" viewBox="0 0 2400 800" opacity="1"><defs><linearGradient x1="50%" y1="0%" x2="50%" y2="100%" id="sssurf-grad"><stop stop-color="hsl(208, 77%, 50%)" stop-opacity="1" offset="0%"></stop><stop stop-color="hsl(208, 74%, 93%)" stop-opacity="1" offset="100%"></stop></linearGradient></defs><g fill="url(#sssurf-grad)" transform="matrix(1,0,0,1,0,-67.75790405273438)"><path d="M 0 323.90434415949204 Q 257.1428571428571 572.8695953533014 342.85714285714283 313.47376251619903 Q 600 524.8681202886419 685.7142857142857 335.27217309082346 Q 942.8571428571428 520.745636382268 1028.5714285714284 336.4407747011562 Q 1285.7142857142856 524.7596833921616 1371.4285714285713 325.1943224119492 Q 1628.5714285714284 622.2362130560696 1714.2857142857142 300.51578930880294 Q 1971.428571428571 626.391859140323 2057.142857142857 318.4482789375739 Q 2314.285714285714 555.2704278215771 2400 324.99426010076104 L 2400 800 L 0 800 L 0 345.9402976837511 Z" transform="matrix(1,0,0,1,0,47)" opacity="0.05"></path><path d="M 0 323.90434415949204 Q 257.1428571428571 572.8695953533014 342.85714285714283 313.47376251619903 Q 600 524.8681202886419 685.7142857142857 335.27217309082346 Q 942.8571428571428 520.745636382268 1028.5714285714284 336.4407747011562 Q 1285.7142857142856 524.7596833921616 1371.4285714285713 325.1943224119492 Q 1628.5714285714284 622.2362130560696 1714.2857142857142 300.51578930880294 Q 1971.428571428571 626.391859140323 2057.142857142857 318.4482789375739 Q 2314.285714285714 555.2704278215771 2400 324.99426010076104 L 2400 800 L 0 800 L 0 345.9402976837511 Z" transform="matrix(1,0,0,1,0,94)" opacity="0.37"></path><path d="M 0 323.90434415949204 Q 257.1428571428571 572.8695953533014 342.85714285714283 313.47376251619903 Q 600 524.8681202886419 685.7142857142857 335.27217309082346 Q 942.8571428571428 520.745636382268 1028.5714285714284 336.4407747011562 Q 1285.7142857142856 524.7596833921616 1371.4285714285713 325.1943224119492 Q 1628.5714285714284 622.2362130560696 1714.2857142857142 300.51578930880294 Q 1971.428571428571 626.391859140323 2057.142857142857 318.4482789375739 Q 2314.285714285714 555.2704278215771 2400 324.99426010076104 L 2400 800 L 0 800 L 0 345.9402976837511 Z" transform="matrix(1,0,0,1,0,141)" opacity="0.68"></path><path d="M 0 323.90434415949204 Q 257.1428571428571 572.8695953533014 342.85714285714283 313.47376251619903 Q 600 524.8681202886419 685.7142857142857 335.27217309082346 Q 942.8571428571428 520.745636382268 1028.5714285714284 336.4407747011562 Q 1285.7142857142856 524.7596833921616 1371.4285714285713 325.1943224119492 Q 1628.5714285714284 622.2362130560696 1714.2857142857142 300.51578930880294 Q 1971.428571428571 626.391859140323 2057.142857142857 318.4482789375739 Q 2314.285714285714 555.2704278215771 2400 324.99426010076104 L 2400 800 L 0 800 L 0 345.9402976837511 Z" transform="matrix(1,0,0,1,0,188)" opacity="1.00"></path></g></svg>